<svg width="48" height="48" viewBox="0 0 48 48" fill="none" xmlns="http://www.w3.org/2000/svg">
<g clip-path="url(#clip0_310_1448)">
<path fill-rule="evenodd" clip-rule="evenodd" d="M21.1025 47.2965C20.616 47.5239 19.4578 47.0639 19.3207 47.1081C19.7468 47.0342 20.7754 47.1126 21.1025 47.2965ZM44.2491 10.5596C44.2259 10.1383 43.7661 9.71681 43.475 9.24454C43.0217 8.50946 42.3153 7.38167 41.7265 6.75232C41.3826 6.38458 41.0782 5.78594 40.7389 5.64263C40.8081 5.9659 41.4653 6.57074 41.6668 6.81368C41.8729 7.06227 44.0771 10.2126 44.2491 10.5596H44.2491ZM40.2083 41.3331C40.6242 41.227 41.0131 40.5965 41.3221 40.3352C42.3876 39.4341 43.0115 38.5903 43.9065 37.5753C44.0864 37.3711 44.2304 37.2563 44.3403 36.9406C44.0465 37.0431 43.623 37.7626 43.3823 38.0675L40.7557 40.7847C40.5583 41.0174 40.3866 41.1332 40.2083 41.3332V41.3331ZM4.87232 39.4767C4.76407 39.2568 4.55698 38.9915 4.39618 38.7698C3.9897 38.2092 2.25252 35.5455 2.02303 35.0918C1.78672 34.6245 1.49832 33.7965 1.17015 33.5406C1.17346 33.9864 1.73738 34.7174 1.93795 35.1314C2.52977 36.353 3.0663 37.0564 3.8261 38.1019C4.14709 38.5435 4.45117 39.2993 4.87232 39.4767ZM41.9773 37.0674C42.0325 37.025 42.0097 37.0481 42.0589 36.9963C42.1089 36.9438 42.1076 36.9416 42.1405 36.8947C42.2033 36.805 42.2229 36.7679 42.2776 36.6796C42.7911 35.8507 43.7502 34.168 43.8475 33.3018C43.6099 33.5978 42.7449 35.6903 42.4963 36.1488C42.346 36.4262 42.0681 36.817 41.9773 37.0673V37.0674ZM43.4579 37.0674C43.5488 36.817 43.8266 36.4262 43.977 36.1489C44.2256 35.6903 45.0905 33.5978 45.3282 33.3019C45.2309 34.168 44.2719 35.8507 43.7583 36.6796C43.7036 36.768 43.684 36.8051 43.6211 36.8948C43.5883 36.9416 43.5895 36.9439 43.5396 36.9963C43.4904 37.0481 43.5132 37.025 43.4579 37.0674L43.4579 37.0674ZM40.5754 6.39703C40.4405 6.32927 40.4304 6.28001 40.2853 6.16238C39.6617 5.65656 39.2301 5.2637 38.4224 4.8438C38.0065 4.62755 36.3854 3.75353 36.1781 3.47165L36.1865 3.47312L36.1852 3.47165C36.9298 3.60041 38.113 4.33809 38.6291 4.68855C39.1928 5.07144 39.632 5.49109 40.1386 5.91887C40.3042 6.05857 40.4345 6.18642 40.5825 6.39703L40.5714 6.39119L40.5754 6.39703ZM2.67494 12.8423C2.60813 12.7471 2.60075 12.938 2.64031 12.6717C2.64052 12.6704 2.70096 12.5202 2.70473 12.5118C2.74887 12.4093 2.77647 12.3369 2.81975 12.2284C2.89969 12.0272 2.97688 11.8355 3.06803 11.6375C4.06389 9.47239 4.82736 8.47667 6.43154 6.78506C7.52593 5.63109 7.82309 5.72778 8.26541 5.36415C8.19515 5.31703 8.30294 5.32049 8.11857 5.33701C8.11515 5.33726 7.98878 5.37026 7.98139 5.37285C7.88032 5.40904 7.82538 5.44407 7.7488 5.49623C7.31406 5.79306 6.93441 6.15307 6.53124 6.48625C5.99043 6.93305 5.55228 7.45447 5.05496 7.92724C4.79401 8.17532 4.57801 8.46798 4.36889 8.74295C4.14867 9.03256 3.96383 9.29182 3.77335 9.60487C3.3965 10.2242 3.09237 10.8037 2.76119 11.5072C2.15084 12.8045 1.66034 14.415 1.28792 15.9079C1.09601 16.6772 0.854864 17.4466 0.688972 18.2125L0.240891 20.6684C0.146284 19.2347 1.14795 15.2255 1.59669 13.7427C1.78652 13.1152 2.1458 12.2791 2.26836 11.6704C1.65062 12.4388 0.65394 16.9295 0.406833 18.2905C0.173118 19.5779 0.0332458 20.7029 -0.0898747 22.0442C-0.162535 22.8343 -0.394519 25.3967 -0.173228 26.0177C0.011911 25.8212 -0.115028 22.643 0.0987267 22.1285C0.0710272 23.594 0.0939914 24.6049 0.19649 26.017C0.226634 26.4313 0.18208 26.7778 0.160694 27.2348C0.0862517 28.821 0.358818 30.439 0.836431 31.8221C2.13291 35.5771 4.25091 38.8044 7.1972 41.3583C9.59306 43.4349 12.6674 45.1501 15.8336 45.976C16.1764 46.0654 16.5558 46.1192 16.8717 46.2666C17.1584 46.4004 17.4371 46.5588 17.73 46.6617C17.059 46.6627 15.9256 46.1825 15.3256 45.9583C14.5497 45.6684 13.8186 45.4098 13.0769 45.1106C11.57 44.5024 10.3504 43.6493 8.99273 42.9896C9.19437 43.5124 14.2611 45.9046 15.2336 46.1881C16.1315 46.45 17.2992 46.9001 18.1915 47.0129C18.6108 47.0661 18.9698 47.0981 19.316 47.1902C19.4146 47.2133 19.5011 47.24 19.5687 47.2698C19.6213 47.289 19.6737 47.3103 19.7262 47.3338C19.6531 47.3359 19.5778 47.3367 19.5008 47.3364C19.2989 47.382 19.0307 47.3547 18.7682 47.3053C17.5422 47.2116 16.0953 46.9227 15.1234 46.6404C13.7755 46.2488 12.4971 45.7514 11.3702 45.1358C9.93421 44.3514 7.97997 43.017 6.82814 41.7719C6.54931 41.4706 5.89252 40.5939 5.5337 40.458C5.62321 40.828 6.6372 41.8028 6.90961 42.0433C8.3839 43.3439 10.2666 44.7613 12.1064 45.6393C14.6041 46.8311 17.642 47.5164 20.4838 47.5377C20.9322 47.541 21.3314 47.6242 21.7814 47.6765C25.5357 48.1129 30.74 47.0235 34.0484 45.436C35.369 44.8024 38.8458 43.0111 39.4654 42.0816C39.1726 42.1654 38.762 42.525 38.5526 42.6941C38.2674 42.9242 38.0373 43.111 37.7204 43.3205C37.1358 43.7072 36.5294 44.0927 35.8796 44.4397C34.6348 45.1048 33.3054 45.7363 31.8024 46.2382C30.2579 46.7537 28.7538 47.1045 27.0469 47.3657C25.9679 47.531 22.4407 47.8031 21.549 47.4897C21.9459 47.4792 22.2146 47.4134 22.6486 47.4308C25.6164 47.5492 27.5476 47.1946 30.3861 46.2822C32.1348 45.7201 32.7703 45.388 34.3817 44.7538C34.9239 44.5402 35.4382 44.3417 35.8545 44.0336L35.0082 44.3618C35.1692 44.33 36.4856 43.5291 36.6733 43.4221C38.1489 42.5802 39.284 41.7769 40.5729 40.738C41.1877 40.2421 42.0424 39.416 42.5642 38.7985C43.776 37.3646 44.9629 35.8829 45.5541 33.9268C45.6553 33.592 45.7382 33.2096 45.7849 32.8356C45.8658 32.1883 45.8437 32.3144 46.0799 31.8032C46.3565 31.2038 46.607 30.6004 46.8225 29.9404C47.9413 26.5154 47.9625 21.7562 47.2501 18.1865C47.1776 17.8229 47.0958 17.4609 47.0021 17.1108L46.6782 16.113C46.7653 16.6928 47.011 17.4156 47.1382 18.0371C47.8298 21.4168 47.823 25.1048 47.0711 28.4689C46.9337 29.0844 46.768 29.6963 46.577 30.2688L45.9278 31.8698C45.9272 31.696 46.1545 31.1738 46.2178 30.9635C46.3152 30.6395 46.405 30.3405 46.5049 30.0112C46.6932 29.3902 46.8513 28.7519 46.9842 28.0711C47.4114 25.883 47.3756 24.6243 47.3621 22.4443C47.3601 22.1058 47.2916 21.6684 47.2726 21.3412C47.1871 19.8712 46.824 18.6341 46.5279 17.229C46.4575 16.8951 46.3966 16.5499 46.323 16.1994C46.2871 16.0283 46.2484 15.8605 46.2048 15.701C46.1681 15.5666 46.076 15.3993 46.0457 15.3274L46.1927 16.1625L45.6256 14.4692C45.4466 13.8973 45.2473 13.3591 45.0281 12.8146C44.575 11.6883 44.1063 10.7342 43.5464 9.74731C42.1194 7.23292 39.3736 3.94365 36.4351 3.25483C36.2145 3.20303 35.604 3.13196 35.4653 3.0732C35.0978 2.91723 34.0401 2.30542 33.2295 1.95593C30.9675 0.980648 28.5095 0.284047 26.0128 0.0949379C24.7252 -0.00256489 22.3504 -0.0698205 21.0778 0.123965C19.2474 0.402646 17.7367 0.644624 15.9821 1.26721C13.8363 2.02857 11.8472 3.0367 10.0048 4.34729C9.76211 4.51998 9.58573 4.65896 9.34865 4.84345C8.95459 5.14988 8.129 5.76977 7.79523 6.11576L7.24659 6.67155C7.15112 6.76524 7.0281 6.84047 6.9341 6.93299C6.74097 7.12322 6.60767 7.32702 6.40384 7.50734C6.18362 7.70219 6.05423 7.91722 5.875 8.12738C5.78646 8.23129 5.67204 8.30439 5.58441 8.41084L4.58209 9.70638C4.09281 10.3646 3.42929 11.3632 3.04888 12.1068L2.67489 12.8421L2.67494 12.8423Z" fill="#FF63B0"/>
<path fill-rule="evenodd" clip-rule="evenodd" d="M27.2393 14.6726L24.9222 15.6332C24.9331 14.4771 24.9376 13.3411 24.9559 12.2042C24.9693 11.3657 24.1852 11.5958 24.1108 11.9458L23.9931 23.8585C23.991 24.1075 23.9439 24.4662 24.1058 24.6136C24.2597 24.7536 24.5772 24.7497 24.7273 24.6089C24.9304 24.4184 24.8467 23.3752 24.8505 23.0198C24.8744 20.7401 24.8796 18.4602 24.9092 16.1817L27.2132 15.2264L27.135 23.8144C27.1282 24.1163 27.0971 24.3738 27.3255 24.4895C27.5549 24.6058 27.8774 24.5338 27.9629 24.3095C28.0362 24.1175 28.0295 21.3723 28.0294 20.9415L28.0891 12.3823C28.0913 12.1885 28.1249 11.7362 28.054 11.5774C27.9756 11.4019 27.6827 11.314 27.4551 11.438C27.2182 11.5671 27.2544 11.7885 27.25 12.0728L27.2393 14.6727V14.6726ZM16.2729 18.534C15.952 18.5396 15.631 18.5464 15.3101 18.5515C14.9818 18.5567 14.702 18.5677 14.6933 18.9166C14.6806 19.4275 15.4853 19.2549 16.244 19.242C17.1603 19.2263 17.8207 19.3775 17.8306 18.8692C17.8404 18.3569 17.1622 18.5185 16.2729 18.534L16.2729 18.534ZM35.0958 15.8973C35.0582 14.918 35.0516 13.932 35.0003 12.9574C34.9819 12.6094 34.814 12.4983 35.7041 12.1319C36.0403 11.9935 36.5922 11.8189 36.8872 12.1159C37.675 12.9094 36.6954 14.5483 35.9245 15.2191C35.7709 15.3528 35.2433 15.8664 35.0958 15.8972V15.8973ZM34.9403 11.9586C34.931 11.9515 34.9181 11.9275 34.914 11.9355L34.8367 11.8685C34.6002 11.6833 34.1357 11.6631 34.1265 12.2024C34.1189 12.6425 34.1666 13.1702 34.1858 13.6173L34.5401 23.3728C34.557 23.8061 34.4613 24.3917 34.9068 24.4724C35.5028 24.5804 35.407 23.954 35.3897 23.5053C35.3025 21.2433 35.1529 18.7042 35.1204 16.5285C35.4156 16.3389 36.3087 15.5459 36.5576 15.2761C36.9569 14.8432 37.3606 14.3184 37.5743 13.5992C37.8206 12.7698 37.6585 11.9654 37.0547 11.6367C36.308 11.2303 35.5122 11.6473 34.9404 11.9586H34.9403ZM20.2837 11.555C19.504 11.7172 18.9756 12.5379 18.7789 13.3727C18.529 14.4333 18.6791 15.2698 18.9419 16.2632C19.9051 19.9024 22.4741 21.9201 21.7122 23.3223C21.5998 23.5291 21.0668 23.9899 20.6953 23.3843C20.0806 22.3825 20.4934 21.4477 20.4934 21.3409C20.4934 21.1024 20.2107 20.9541 20.0305 21.108C19.3998 21.6465 19.7594 24.4499 21.4084 24.1704C22.4464 23.9946 22.7546 23.0069 22.5744 22.0829C22.1635 19.9746 21.3943 19.3615 20.3846 17.555C19.9725 16.8175 19.588 16.0961 19.4876 15.1128C19.3901 14.1589 19.6053 13.0123 20.1213 12.4624C20.9436 11.5859 21.5846 12.3908 21.7958 13.3678C21.8511 13.6231 21.8506 13.8705 21.894 14.1035C21.9683 14.5019 22.8501 14.6739 22.2768 12.8877C22.0197 12.0868 21.3972 11.3232 20.2837 11.555V11.555ZM10.661 18.6445L13.2611 21.6566C13.5247 21.6806 13.7573 21.5265 13.6226 21.2664C13.5696 21.1639 13.3311 20.9123 13.235 20.8119L12.4405 19.8817C12.1472 19.5693 11.9291 19.2833 11.6645 18.9791C11.5249 18.8185 10.9597 18.2139 10.8829 18.0321L13.9149 14.5653C14.003 14.4589 14.0219 14.4306 14.1203 14.3265C14.4054 14.0247 14.1457 13.5417 13.6748 14.0588C13.5456 14.2007 13.3708 14.4021 13.2472 14.56L10.6525 17.474L10.6424 12.0734C10.6439 11.565 10.826 10.6322 10.1909 10.6784C9.65385 10.7175 9.79871 11.35 9.80171 12.1175L9.81704 21.2985C9.82142 21.8269 9.74127 24.684 9.89327 24.8976C10.0324 25.0932 10.3462 25.1178 10.5394 24.9669C10.7473 24.8045 10.6854 24.4675 10.6827 24.1676C10.6667 22.403 10.631 20.3624 10.6611 18.6446L10.661 18.6445ZM32.0056 13.0247C32.4939 12.8211 32.8111 14.889 32.8596 15.3444C32.9702 16.3857 32.9187 17.4046 32.842 18.4398C32.7468 19.7244 32.6678 23.3402 31.3586 23.4319C30.045 23.5239 30.4549 19.0481 30.5476 18.0237C30.6437 16.9625 30.7497 16.2361 31.0098 15.257C31.1636 14.6776 31.5906 13.1978 32.0056 13.0247ZM31.9861 11.9688C31.5154 12.0762 31.0889 12.5648 30.883 12.9221C29.8364 14.7372 29.2916 19.6445 29.5396 21.6955C29.6868 22.9128 30.0452 24.0271 31.0212 24.3311C32.0935 24.6651 32.6338 23.1365 32.8714 22.2327C33.1781 21.0659 33.33 19.9009 33.3844 18.6514C33.4402 17.371 33.5559 11.6101 31.9861 11.9688H31.9861Z" fill="white"/>
<path fill-rule="evenodd" clip-rule="evenodd" d="M22.1972 35.0049C22.5671 35.0978 23.0156 35.4198 23.4955 35.4806C23.5213 35.2766 23.5562 35.1011 23.5718 34.8943C23.5899 34.6532 23.5644 34.3973 23.6025 34.1652C23.5001 34.0191 23.617 33.4487 23.1129 32.7621C22.8584 32.4156 22.4613 32.1075 21.8098 32.1101L21.8709 32.8656C21.716 32.8152 21.1568 32.4153 21.1289 32.5615C21.1255 32.5793 21.1094 32.5824 21.1051 32.5902C20.9771 32.823 20.92 33.5806 21.1938 34.0552C21.2598 34.1697 21.5808 34.5366 21.6386 34.5859C21.7435 34.6754 22.126 34.9149 22.1972 35.0049L22.1972 35.0049Z" fill="#FDD6E9"/>
<path fill-rule="evenodd" clip-rule="evenodd" d="M22.6596 36.7567C22.7906 36.5189 22.877 36.5168 23.0314 36.3255C23.1571 36.1699 23.2559 36.0214 23.3546 35.8644C23.139 35.6077 22.1528 35.309 21.6515 35.2228C21.0724 35.1352 20.7605 35.238 20.3891 35.4965C20.1033 35.6955 19.7425 36.0146 19.6807 36.4382L20.3685 36.6014C20.3344 36.6889 20.1963 36.7817 20.1114 36.8531C20.01 36.9384 19.9229 37.0009 19.8361 37.1003C20.447 37.8447 21.6767 37.6199 22.3755 36.9951C22.4974 36.8862 22.5289 36.8286 22.6595 36.7567H22.6596Z" fill="#FDD6E9"/>
<path fill-rule="evenodd" clip-rule="evenodd" d="M22.834 37.5254C22.6462 38.2327 22.6633 38.8266 23.1508 39.4326C23.3001 39.6182 23.4295 39.6497 23.6125 39.7733C23.6985 39.6417 23.8393 39.2592 23.8967 39.0886C24.0529 39.251 24.1249 39.5185 24.2936 39.701C24.66 39.5719 24.8457 39.1901 24.9505 38.7721C25.1089 38.139 24.9116 37.8725 24.7948 37.3652C24.7087 37.3 24.401 36.6991 23.9792 36.3101C23.9309 36.2657 23.7139 36.0516 23.6835 36.0139C23.1989 36.5395 23.0912 37.0116 22.834 37.5254Z" fill="#FDD6E9"/>
<path fill-rule="evenodd" clip-rule="evenodd" d="M24.1276 33.9181C24.0894 34.3966 24.0091 34.788 24.0687 35.2846C24.3626 35.233 24.5985 35.1873 24.8707 35.1144C25.1369 35.0431 25.4179 34.8777 25.6478 34.8752C25.8066 34.6436 27.1359 34.1755 26.681 32.683L25.9859 32.935C26.0112 32.8024 26.0365 32.7024 26.0675 32.557C26.0872 32.4652 26.1625 32.274 26.0948 32.2076C25.7038 31.9176 24.9102 32.4687 24.7298 32.6377C24.3871 32.9584 24.2589 33.4085 24.1277 33.9181H24.1276Z" fill="#FDD6E9"/>
<path fill-rule="evenodd" clip-rule="evenodd" d="M25.253 37.2358C25.3718 37.2728 26.7181 38.2079 27.634 37.2132L27.0833 36.7129L27.7854 36.5796C27.7991 35.9192 26.8283 35.2656 25.7563 35.3455C25.2523 35.4971 24.4387 35.5831 24.1279 35.9151C24.6019 36.6158 24.5913 36.5914 25.1113 37.079C25.1387 37.1047 25.1707 37.1326 25.1997 37.1646C25.2549 37.2257 25.2184 37.1697 25.2529 37.2359L25.253 37.2358Z" fill="#FDD6E9"/>
<path fill-rule="evenodd" clip-rule="evenodd" d="M23.6024 34.1652C23.5643 34.3973 23.5898 34.6532 23.5717 34.8943C23.5561 35.1012 23.5212 35.2766 23.4954 35.4806C23.0155 35.4198 22.567 35.0978 22.1971 35.0049C22.02 34.965 21.8066 35.0158 21.626 35.0613L21.6515 35.2228C22.1529 35.3089 23.1391 35.6076 23.3547 35.8643C23.2559 36.0214 23.1571 36.1698 23.0315 36.3254C22.877 36.5168 22.7906 36.5189 22.6596 36.7567L22.5075 37.7011L22.7459 37.5878C22.7547 37.5818 22.7667 37.5732 22.7747 37.5676C22.783 37.5619 22.7975 37.5515 22.8043 37.5467C22.8112 37.5419 22.8239 37.5322 22.8341 37.5254C23.0913 37.0116 23.1989 36.5395 23.6836 36.014C23.7139 36.0516 23.931 36.2657 23.9793 36.3101C24.4012 36.6991 24.7088 37.3001 24.7949 37.3653C24.9426 37.4488 25.2253 37.6005 25.349 37.625L25.2894 37.3404C25.286 37.3289 25.2815 37.3156 25.2782 37.3052L25.2531 37.2358C25.2186 37.1696 25.2551 37.2256 25.1999 37.1645C25.1709 37.1325 25.1389 37.1046 25.1115 37.0789C24.5915 36.5912 24.6022 36.6157 24.1282 35.915C24.439 35.583 25.2525 35.497 25.7566 35.3454C25.8261 35.2496 25.8519 35.2208 25.9221 35.149L26.0949 34.9374L25.6478 34.8752C25.4179 34.8777 25.1368 35.043 24.8706 35.1144C24.5984 35.1873 24.3625 35.233 24.0686 35.2846C24.009 34.788 24.0894 34.3966 24.1275 33.9181C23.9566 33.7544 23.9943 33.5703 23.8072 33.4102C23.4885 33.7935 23.6293 33.9805 23.6024 34.1652Z" fill="#FD45A6"/>
<path d="M12.3909 28.7582L12.38 28.3527L13.2471 26.9931H13.4961L12.8255 28.0702L12.7032 28.2763L12.3909 28.7583L12.3909 28.7582ZM12.1987 29.32V26.993H12.4171V29.32H12.1987ZM13.282 29.32L12.6552 28.2097L12.8016 27.9638L13.5376 29.32H13.282ZM14.4025 29.3466C14.2875 29.3466 14.1801 29.3166 14.0803 29.2568C13.9806 29.197 13.8943 29.1133 13.8215 29.0058C13.7487 28.8984 13.6923 28.7726 13.6522 28.6285C13.6122 28.4845 13.5914 28.3271 13.59 28.1565C13.5914 27.9858 13.6122 27.8285 13.6522 27.6844C13.6923 27.5404 13.7491 27.4146 13.8226 27.3071C13.8961 27.1996 13.982 27.116 14.0803 27.0561C14.1786 26.9963 14.286 26.9664 14.4025 26.9664C14.5205 26.9664 14.6285 26.9963 14.7269 27.0561C14.8251 27.116 14.911 27.1991 14.9846 27.3055C15.0582 27.4119 15.1149 27.5376 15.1549 27.6828C15.195 27.828 15.215 27.9859 15.215 28.1565C15.215 28.3294 15.195 28.4878 15.1549 28.6318C15.1149 28.7759 15.0581 28.9011 14.9846 29.0075C14.911 29.1139 14.8251 29.197 14.7269 29.2568C14.6286 29.3166 14.5205 29.3466 14.4025 29.3466ZM14.4025 29.0507C14.4884 29.0507 14.5674 29.0285 14.6394 28.9842C14.7115 28.9399 14.7742 28.8773 14.8273 28.7964C14.8805 28.7155 14.922 28.6208 14.9518 28.5121C14.9817 28.4035 14.9966 28.285 14.9966 28.1565C14.9966 28.028 14.9821 27.9094 14.9529 27.8008C14.9237 27.6922 14.8823 27.5975 14.8284 27.5166C14.7745 27.4357 14.7115 27.3731 14.6394 27.3288C14.5674 27.2844 14.4884 27.2623 14.4025 27.2623C14.3181 27.2623 14.2394 27.2844 14.1666 27.3288C14.0938 27.3731 14.0308 27.4357 13.9777 27.5166C13.9245 27.5975 13.883 27.6917 13.8532 27.7991C13.8233 27.9066 13.8084 28.0257 13.8084 28.1565C13.8084 28.285 13.8233 28.4036 13.8532 28.5121C13.883 28.6208 13.9249 28.7155 13.9787 28.7964C14.0326 28.8773 14.0956 28.9399 14.1677 28.9842C14.2397 29.0285 14.318 29.0507 14.4024 29.0507H14.4025ZM15.5492 29.3199V26.993H16.1455C16.2795 26.993 16.3938 27.0251 16.4884 27.0894C16.5831 27.1537 16.6559 27.2468 16.7068 27.3686C16.7578 27.4905 16.7833 27.6357 16.7833 27.8041C16.7833 27.9725 16.7578 28.1171 16.7068 28.2379C16.6559 28.3587 16.5831 28.4512 16.4884 28.5155C16.3938 28.5798 16.2795 28.6119 16.1455 28.6119H15.6693L15.7676 28.459V29.3199H15.5492ZM16.5714 29.3199L16.1826 28.4756H16.4163L16.8095 29.3199H16.5714ZM15.7676 28.4922L15.6693 28.3294H16.1389C16.2787 28.3294 16.3847 28.2834 16.4567 28.1914C16.5288 28.0994 16.5649 27.9704 16.5649 27.8042C16.5649 27.638 16.5288 27.5094 16.4567 27.4186C16.3847 27.3277 16.2787 27.2823 16.1389 27.2823H15.6693L15.7676 27.1161V28.4923V28.4922ZM17.3358 28.0003L18.1222 27.997L18.12 28.2762L17.3358 28.2794V28.0003ZM17.3533 29.0341L18.2467 29.0308V29.32H17.1371L17.1393 26.993H18.2161V27.2789L17.3555 27.2822L17.3533 29.0341ZM18.369 29.3199L19.0613 26.993H19.2775L19.9721 29.3199H19.7427L19.1246 27.1792H19.212L18.5939 29.3199H18.369ZM18.6638 28.7382L18.7227 28.4723H19.5834L19.6467 28.7382H18.6638ZM20.1993 29.3199V26.993H20.3784L21.3896 28.9044H21.2957V26.993H21.5142V29.3199H21.3351L20.3238 27.4086H20.4177V29.3199H20.1993ZM23.244 29.3465C23.1275 29.3465 23.0201 29.3172 22.9218 29.2584C22.8236 29.1997 22.7384 29.1166 22.6663 29.0091C22.5942 28.9016 22.5378 28.7758 22.497 28.6318C22.4562 28.4877 22.4359 28.3293 22.4359 28.1564C22.4359 27.9835 22.4563 27.8251 22.497 27.6811C22.5378 27.537 22.5945 27.4113 22.6673 27.3038C22.7401 27.1963 22.8257 27.1132 22.924 27.0544C23.0223 26.9957 23.1297 26.9663 23.2462 26.9663C23.3642 26.9663 23.473 26.9968 23.5728 27.0577C23.6725 27.1187 23.7573 27.2089 23.8273 27.3287L23.6852 27.5381C23.627 27.445 23.5615 27.3757 23.4886 27.3303C23.4159 27.2848 23.3379 27.2622 23.2549 27.2622C23.169 27.2622 23.0893 27.2843 23.0158 27.3287C22.9422 27.373 22.8785 27.435 22.8247 27.5148C22.7708 27.5945 22.7289 27.6893 22.6991 27.799C22.6692 27.9087 22.6544 28.0279 22.6544 28.1564C22.6544 28.2849 22.6692 28.404 22.6991 28.5137C22.7289 28.6234 22.7708 28.7182 22.8247 28.798C22.8785 28.8777 22.9422 28.9398 23.0158 28.9841C23.0893 29.0284 23.169 29.0506 23.2549 29.0506C23.3379 29.0506 23.4158 29.0278 23.4886 28.9825C23.5615 28.937 23.627 28.8667 23.6852 28.7714L23.8273 28.9808C23.7573 29.1005 23.6725 29.1913 23.5728 29.2534C23.473 29.3155 23.3634 29.3465 23.244 29.3465V29.3465ZM24.7948 29.3465C24.6797 29.3465 24.5723 29.3166 24.4726 29.2568C24.3729 29.1969 24.2866 29.1133 24.2138 29.0058C24.141 28.8983 24.0845 28.7725 24.0445 28.6285C24.0045 28.4844 23.9838 28.3271 23.9822 28.1564C23.9838 27.9858 24.0045 27.8285 24.0445 27.6844C24.0845 27.5403 24.1414 27.4146 24.2148 27.3071C24.2884 27.1996 24.3743 27.116 24.4726 27.0561C24.5709 26.9963 24.6783 26.9663 24.7948 26.9663C24.9127 26.9663 25.0208 26.9963 25.1192 27.0561C25.2174 27.116 25.3033 27.199 25.3769 27.3054C25.4504 27.4118 25.5072 27.5375 25.5472 27.6827C25.5873 27.8279 25.6073 27.9858 25.6073 28.1564C25.6073 28.3293 25.5873 28.4877 25.5472 28.6318C25.5072 28.7758 25.4504 28.901 25.3769 29.0074C25.3033 29.1138 25.2174 29.1969 25.1192 29.2568C25.0209 29.3166 24.9127 29.3465 24.7948 29.3465ZM24.7948 29.0506C24.8807 29.0506 24.9597 29.0285 25.0318 28.9841C25.1038 28.9399 25.1665 28.8772 25.2196 28.7963C25.2728 28.7154 25.3143 28.6207 25.3441 28.5121C25.374 28.4035 25.3889 28.2849 25.3889 28.1564C25.3889 28.0279 25.3744 27.9093 25.3452 27.8008C25.3161 27.6921 25.2746 27.5974 25.2207 27.5165C25.1668 27.4356 25.1038 27.373 25.0318 27.3287C24.9597 27.2844 24.8807 27.2622 24.7948 27.2622C24.7103 27.2622 24.6317 27.2844 24.5589 27.3287C24.4861 27.373 24.4232 27.4356 24.3699 27.5165C24.3168 27.5974 24.2753 27.6916 24.2454 27.7991C24.2156 27.9066 24.2007 28.0257 24.2007 28.1564C24.2007 28.2849 24.2156 28.4035 24.2454 28.5121C24.2753 28.6207 24.3172 28.7154 24.371 28.7963C24.4249 28.8772 24.4879 28.9399 24.56 28.9841C24.632 29.0285 24.7103 29.0506 24.7948 29.0506H24.7948ZM26.3871 29.3465C26.2706 29.3465 26.1592 29.3193 26.0529 29.2651C25.9466 29.2108 25.8629 29.1404 25.8017 29.054L25.8826 28.7947C25.9408 28.8722 26.0151 28.9365 26.1053 28.9875C26.1956 29.0385 26.2895 29.0639 26.3871 29.0639C26.4759 29.0639 26.5479 29.0484 26.6033 29.0174C26.6587 28.9864 26.6994 28.9437 26.7256 28.8895C26.7518 28.8352 26.7649 28.7737 26.7649 28.7049C26.7649 28.6252 26.7478 28.5609 26.7136 28.5121C26.6794 28.4634 26.635 28.4241 26.5804 28.3941C26.5258 28.3642 26.4657 28.3382 26.4002 28.316C26.3347 28.2938 26.2687 28.2678 26.2025 28.2379C26.1362 28.2079 26.0758 28.1697 26.0213 28.1232C25.9666 28.0767 25.9225 28.0141 25.8891 27.9354C25.8556 27.8567 25.8389 27.7553 25.8389 27.6312C25.8389 27.5115 25.8596 27.4013 25.9011 27.3005C25.9426 27.1996 26.0067 27.1188 26.0933 27.0578C26.1799 26.9969 26.2903 26.9664 26.4242 26.9664C26.513 26.9664 26.6011 26.9842 26.6885 27.0196C26.7759 27.055 26.8515 27.106 26.9157 27.1725L26.8436 27.4384C26.7781 27.3719 26.7089 27.3238 26.6361 27.2938C26.5633 27.264 26.4927 27.249 26.4242 27.249C26.3383 27.249 26.2677 27.2656 26.2124 27.2988C26.1571 27.3321 26.1167 27.3763 26.0912 27.4318C26.0657 27.4872 26.053 27.5492 26.053 27.6179C26.053 27.6999 26.0701 27.7653 26.1043 27.814C26.1385 27.8628 26.1829 27.9016 26.2375 27.9304C26.2922 27.9592 26.3521 27.9853 26.4177 28.0085C26.4833 28.0318 26.5491 28.0579 26.6154 28.0867C26.6817 28.1154 26.7421 28.1532 26.7967 28.1997C26.8513 28.2462 26.8953 28.3083 26.9288 28.3858C26.9623 28.4634 26.9791 28.5631 26.9791 28.685C26.9791 28.8025 26.958 28.9116 26.9158 29.0124C26.8735 29.1133 26.8084 29.1941 26.7203 29.2551C26.6322 29.316 26.5211 29.3465 26.3872 29.3465H26.3871ZM27.2978 29.3199V26.993H27.4769L28.1627 28.7515H28.0667L28.7438 26.993H28.9229L28.925 29.3199H28.7154L28.7132 27.495H28.7635L28.1606 29.0374H28.0601L27.453 27.495H27.5075V29.3199H27.2979H27.2978ZM29.5825 28.0003L30.3688 27.997L30.3666 28.2762L29.5825 28.2794V28.0003ZM29.6 29.0341L30.4933 29.0308V29.32H29.3838L29.386 26.993H30.4628V27.2789L29.6022 27.2822L29.6 29.0341ZM31.1508 29.3199V27.2822L30.6265 27.2789V26.993H31.889L31.8912 27.2823L31.367 27.2789V29.32H31.1508V29.3199ZM32.1292 29.3199V26.993H32.3477V29.3199H32.1292ZM33.49 29.3465C33.3735 29.3465 33.2661 29.3172 33.1678 29.2584C33.0695 29.1997 32.9844 29.1166 32.9123 29.0091C32.8402 28.9016 32.7838 28.7758 32.743 28.6318C32.7022 28.4877 32.6818 28.3293 32.6818 28.1564C32.6818 27.9835 32.7023 27.8251 32.743 27.6811C32.7838 27.537 32.8406 27.4113 32.9133 27.3038C32.9861 27.1963 33.0717 27.1132 33.17 27.0544C33.2683 26.9957 33.3757 26.9663 33.4922 26.9663C33.6101 26.9663 33.719 26.9968 33.8188 27.0577C33.9185 27.1187 34.0033 27.2089 34.0732 27.3287L33.9312 27.5381C33.873 27.445 33.8075 27.3757 33.7347 27.3303C33.6619 27.2848 33.584 27.2622 33.501 27.2622C33.415 27.2622 33.3353 27.2843 33.2618 27.3287C33.1882 27.373 33.1245 27.435 33.0707 27.5148C33.0168 27.5945 32.9749 27.6893 32.9451 27.799C32.9153 27.9087 32.9003 28.0279 32.9003 28.1564C32.9003 28.2849 32.9153 28.404 32.9451 28.5137C32.9749 28.6234 33.0168 28.7182 33.0707 28.798C33.1245 28.8777 33.1883 28.9398 33.2618 28.9841C33.3353 29.0284 33.415 29.0506 33.501 29.0506C33.584 29.0506 33.6618 29.0278 33.7347 28.9825C33.8074 28.937 33.873 28.8667 33.9312 28.7714L34.0732 28.9808C34.0033 29.1005 33.9185 29.1913 33.8188 29.2534C33.719 29.3155 33.6094 29.3465 33.49 29.3465V29.3465ZM34.8289 29.3465C34.7124 29.3465 34.601 29.3193 34.4947 29.2651C34.3884 29.2108 34.3047 29.1404 34.2435 29.054L34.3244 28.7947C34.3826 28.8722 34.4569 28.9365 34.5471 28.9875C34.6374 29.0385 34.7313 29.0639 34.8289 29.0639C34.9177 29.0639 34.9898 29.0484 35.0451 29.0174C35.1005 28.9864 35.1412 28.9437 35.1674 28.8895C35.1936 28.8352 35.2067 28.7737 35.2067 28.7049C35.2067 28.6252 35.1897 28.5609 35.1554 28.5121C35.1212 28.4634 35.0768 28.4241 35.0222 28.3941C34.9676 28.3642 34.9075 28.3382 34.842 28.316C34.7765 28.2938 34.7105 28.2678 34.6443 28.2379C34.578 28.2079 34.5177 28.1697 34.4631 28.1232C34.4084 28.0767 34.3644 28.0141 34.3309 27.9354C34.2974 27.8567 34.2807 27.7553 34.2807 27.6312C34.2807 27.5115 34.3014 27.4013 34.3429 27.3005C34.3844 27.1996 34.4485 27.1188 34.5351 27.0578C34.6217 26.9969 34.7321 26.9664 34.866 26.9664C34.9548 26.9664 35.0429 26.9842 35.1303 27.0196C35.2177 27.055 35.2933 27.106 35.3575 27.1725L35.2854 27.4384C35.2199 27.3719 35.1507 27.3238 35.0779 27.2938C35.0051 27.264 34.9345 27.249 34.866 27.249C34.7801 27.249 34.7095 27.2656 34.6542 27.2988C34.5989 27.3321 34.5585 27.3763 34.533 27.4318C34.5075 27.4872 34.4948 27.5492 34.4948 27.6179C34.4948 27.6999 34.5119 27.7653 34.5461 27.814C34.5803 27.8628 34.6248 27.9016 34.6793 27.9304C34.734 27.9592 34.794 27.9853 34.8595 28.0085C34.9251 28.0318 34.991 28.0579 35.0572 28.0867C35.1235 28.1154 35.1839 28.1532 35.2385 28.1997C35.2931 28.2462 35.3371 28.3083 35.3706 28.3858C35.4041 28.4634 35.4209 28.5631 35.4209 28.685C35.4209 28.8025 35.3998 28.9116 35.3576 29.0124C35.3153 29.1133 35.2502 29.1941 35.1621 29.2551C35.074 29.316 34.9629 29.3465 34.829 29.3465H34.8289Z" fill="white"/>
</g>
<defs>
<clipPath id="clip0_310_1448">
<rect width="48" height="48" fill="white"/>
</clipPath>
</defs>
</svg>
