<svg width="164" height="164" viewBox="0 0 164 164" fill="none" xmlns="http://www.w3.org/2000/svg">
<g clip-path="url(#clip0_84_838)">
<path fill-rule="evenodd" clip-rule="evenodd" d="M72.1006 161.596C70.4381 162.374 66.481 160.802 66.0128 160.953C67.4684 160.7 70.9828 160.968 72.1006 161.596ZM151.185 36.0786C151.105 34.6392 149.534 33.1992 148.54 31.5856C146.991 29.0741 144.577 25.2208 142.566 23.0705C141.391 21.8141 140.351 19.7687 139.191 19.2791C139.428 20.3836 141.673 22.4501 142.362 23.2802C143.066 24.1295 150.597 34.8932 151.185 36.0786H151.185ZM137.378 141.222C138.8 140.859 140.128 138.705 141.184 137.812C144.824 134.733 146.956 131.85 150.014 128.382C150.629 127.685 151.121 127.293 151.496 126.214C150.492 126.564 149.046 129.022 148.223 130.064L139.249 139.348C138.574 140.143 137.988 140.538 137.378 141.222V141.222ZM16.6473 134.879C16.2775 134.127 15.5699 133.221 15.0205 132.464C13.6317 130.548 7.69636 121.447 6.91227 119.897C6.10487 118.3 5.1195 115.471 3.99826 114.597C4.00956 116.12 5.93629 118.618 6.62156 120.032C8.64363 124.206 10.4768 126.61 13.0728 130.182C14.1695 131.69 15.2084 134.273 16.6473 134.879ZM143.423 126.647C143.611 126.502 143.533 126.581 143.701 126.404C143.872 126.225 143.868 126.217 143.98 126.057C144.195 125.751 144.262 125.624 144.449 125.322C146.203 122.49 149.48 116.741 149.813 113.781C149.001 114.792 146.045 121.942 145.196 123.509C144.682 124.456 143.733 125.791 143.423 126.647V126.647ZM148.481 126.647C148.792 125.792 149.741 124.456 150.255 123.509C151.104 121.942 154.059 114.793 154.872 113.781C154.539 116.741 151.263 122.49 149.508 125.322C149.321 125.624 149.254 125.751 149.039 126.057C148.927 126.217 148.931 126.225 148.76 126.404C148.592 126.581 148.67 126.502 148.481 126.647L148.481 126.647ZM138.633 21.8566C138.172 21.6251 138.137 21.4568 137.642 21.0549C135.511 19.3267 134.036 17.9844 131.277 16.5498C129.856 15.8109 124.317 12.8247 123.609 11.8616L123.637 11.8666L123.633 11.8616C126.177 12.3015 130.22 14.8219 131.983 16.0193C133.909 17.3275 135.41 18.7613 137.14 20.2229C137.706 20.7002 138.151 21.137 138.657 21.8566L138.619 21.8367L138.633 21.8566ZM9.13962 43.8781C8.91137 43.5526 8.88614 44.2048 9.02132 43.2952C9.02201 43.2907 9.22852 42.7776 9.24139 42.7488C9.39223 42.3984 9.48652 42.1511 9.63439 41.7804C9.90753 41.0932 10.1713 40.4382 10.4827 39.7615C13.8852 32.3641 16.4937 28.9621 21.9747 23.1824C25.7138 19.2397 26.7291 19.57 28.2404 18.3276C28.0003 18.1666 28.3686 18.1784 27.7387 18.2349C27.727 18.2358 27.2952 18.3485 27.27 18.3573C26.9247 18.481 26.737 18.6007 26.4753 18.7789C24.9899 19.793 23.6928 21.0231 22.3153 22.1615C20.4676 23.688 18.9705 25.4695 17.2714 27.0848C16.3798 27.9324 15.6418 28.9324 14.9273 29.8718C14.1749 30.8613 13.5433 31.7472 12.8925 32.8167C11.605 34.9329 10.5658 36.9127 9.43433 39.3163C7.34894 43.7489 5.67307 49.2513 4.40065 54.352C3.74495 56.9804 2.92103 59.6094 2.35423 62.226L0.823287 70.6171C0.500049 65.7187 3.92241 52.0206 5.45561 46.9543C6.10417 44.8104 7.33171 41.9538 7.75046 39.874C5.63985 42.4993 2.23454 57.8426 1.39026 62.4926C0.591732 66.8913 0.113834 70.735 -0.306828 75.3178C-0.555084 78.0173 -1.3477 86.7722 -0.591618 88.894C0.0409401 88.2225 -0.392769 77.3637 0.337561 75.6059C0.24292 80.6128 0.321381 84.067 0.671585 88.8915C0.774576 90.3071 0.622351 91.4908 0.549283 93.0522C0.294938 98.472 1.2262 104 2.85805 108.726C7.2877 121.555 14.5242 132.582 24.5907 141.308C32.7765 148.403 43.2804 154.263 54.0984 157.085C55.2696 157.39 56.5658 157.574 57.6452 158.078C58.6246 158.535 59.5771 159.076 60.5778 159.428C58.2852 159.431 54.4128 157.79 52.3627 157.024C49.7117 156.034 47.2137 155.15 44.6796 154.128C39.531 152.05 35.3642 149.135 30.7254 146.881C31.4143 148.667 48.7257 156.841 52.0485 157.81C55.1163 158.704 59.106 160.242 62.1547 160.627C63.5873 160.809 64.8138 160.919 65.9966 161.233C66.3336 161.312 66.6288 161.403 66.86 161.505C67.0396 161.571 67.2186 161.644 67.3981 161.724C67.1485 161.731 66.891 161.734 66.628 161.733C65.938 161.888 65.0219 161.795 64.125 161.626C59.936 161.306 54.9926 160.319 51.6719 159.355C47.0667 158.017 42.6986 156.317 38.8485 154.214C33.9421 151.534 27.2651 146.975 23.3297 142.721C22.3771 141.691 20.133 138.696 18.907 138.232C19.2129 139.496 22.6773 142.827 23.6081 143.648C28.6452 148.092 35.0776 152.935 41.3639 155.934C49.8977 160.006 60.2772 162.348 69.9866 162.42C71.5186 162.432 72.8826 162.716 74.4199 162.895C87.2472 164.386 105.029 160.664 116.332 155.24C120.844 153.075 132.724 146.955 134.84 143.779C133.84 144.065 132.437 145.294 131.722 145.871C130.747 146.658 129.961 147.296 128.878 148.012C126.881 149.333 124.809 150.65 122.589 151.836C118.336 154.108 113.794 156.266 108.658 157.98C103.381 159.742 98.2425 160.94 92.4106 161.833C88.724 162.398 76.6727 163.327 73.6261 162.257C74.9822 162.221 75.9003 161.996 77.383 162.055C87.5231 162.46 94.1211 161.248 103.819 158.131C109.794 156.211 111.965 155.076 117.471 152.909C119.323 152.179 121.081 151.501 122.503 150.448L119.612 151.569C120.162 151.461 124.659 148.725 125.301 148.359C130.342 145.482 134.221 142.738 138.624 139.188C140.725 137.494 143.645 134.671 145.428 132.562C149.568 127.662 153.624 122.6 155.643 115.917C155.989 114.773 156.272 113.466 156.432 112.188C156.709 109.977 156.633 110.408 157.44 108.661C158.385 106.613 159.241 104.551 159.977 102.296C163.8 90.5946 163.872 74.3338 161.438 62.1373C161.19 60.895 160.911 59.658 160.591 58.462L159.484 55.053C159.782 57.0338 160.621 59.5033 161.056 61.627C163.419 73.1741 163.396 85.7749 160.827 97.2689C160.357 99.3717 159.791 101.463 159.138 103.419L156.92 108.888C156.918 108.295 157.695 106.51 157.911 105.792C158.244 104.685 158.551 103.663 158.892 102.538C159.535 100.416 160.076 98.2358 160.53 95.9098C161.989 88.4337 161.867 84.1332 161.821 76.6847C161.814 75.5283 161.58 74.0339 161.515 72.9158C161.223 67.8935 159.982 63.6668 158.971 58.866C158.73 57.725 158.522 56.5457 158.271 55.3481C158.148 54.7633 158.016 54.1903 157.867 53.6451C157.741 53.1859 157.427 52.6144 157.323 52.3688L157.825 55.222L155.888 49.4365C155.276 47.4825 154.595 45.6438 153.846 43.7832C152.298 39.9352 150.697 36.6752 148.784 33.3034C143.908 24.7126 134.527 13.4743 124.487 11.1208C123.733 10.9438 121.647 10.701 121.173 10.5002C119.918 9.96731 116.304 7.87697 113.534 6.68286C105.806 3.35065 97.4076 0.970594 88.8773 0.324473C84.4779 -0.00866165 76.3643 -0.238452 72.0162 0.423649C65.7621 1.37581 60.6006 2.20257 54.6057 4.32973C47.2742 6.93106 40.478 10.3755 34.1834 14.8533C33.3541 15.4434 32.7515 15.9182 31.9415 16.5485C30.5951 17.5955 27.7743 19.7135 26.634 20.8956L24.7594 22.7946C24.4332 23.1147 24.0129 23.3717 23.6918 23.6878C23.0319 24.3378 22.5764 25.0341 21.88 25.6502C21.1276 26.3159 20.6855 27.0506 20.0732 27.7686C19.7706 28.1237 19.3797 28.3734 19.0803 28.7371L15.6557 33.1636C13.984 35.4125 11.717 38.8243 10.4173 41.365L9.13944 43.8774L9.13962 43.8781Z" fill="#FF63B0"/>
<path fill-rule="evenodd" clip-rule="evenodd" d="M93.0679 50.132L85.1512 53.414C85.1884 49.464 85.2041 45.5828 85.2663 41.6982C85.3121 38.8334 82.6331 39.6197 82.3791 40.8154L81.9767 81.517C81.9698 82.3677 81.8088 83.5935 82.3621 84.097C82.8876 84.5753 83.9725 84.5619 84.4852 84.081C85.1792 83.43 84.8932 79.8659 84.9062 78.6517C84.9878 70.8626 85.0057 63.0729 85.107 55.2881L92.9788 52.0242L92.7116 81.3666C92.6885 82.398 92.5823 83.2779 93.3624 83.6732C94.1465 84.0702 95.2483 83.8243 95.5404 83.058C95.7907 82.4021 95.7677 73.0224 95.7674 71.5506L95.9716 42.3068C95.979 41.6446 96.0939 40.0993 95.8516 39.5568C95.5837 38.9571 94.5828 38.6566 93.8054 39.0806C92.9959 39.5216 93.1196 40.2778 93.1046 41.2492L93.0679 50.1322V50.132ZM55.5996 63.3252C54.5031 63.3442 53.4065 63.3674 52.3098 63.385C51.1884 63.4027 50.2324 63.4404 50.2025 64.6322C50.159 66.378 52.9086 65.7883 55.5006 65.744C58.6316 65.6905 60.888 66.2071 60.9215 64.4704C60.9553 62.7199 58.6378 63.2723 55.5994 63.3251L55.5996 63.3252ZM119.911 54.3162C119.783 50.9702 119.76 47.6016 119.585 44.2716C119.522 43.0827 118.948 42.7032 121.99 41.4512C123.138 40.9783 125.024 40.3817 126.032 41.3965C128.723 44.1078 125.376 49.7074 122.743 51.999C122.218 52.456 120.415 54.2108 119.911 54.316V54.3162ZM119.38 40.8591C119.348 40.835 119.304 40.7528 119.29 40.7803L119.026 40.5514C118.218 39.9184 116.631 39.8495 116.599 41.6922C116.573 43.1959 116.736 44.9988 116.802 46.5262L118.012 79.8578C118.07 81.3381 117.743 83.3388 119.265 83.6145C121.302 83.9836 120.974 81.8435 120.915 80.3102C120.617 72.582 120.106 63.9066 119.995 56.473C121.004 55.8252 124.055 53.1158 124.906 52.1939C126.27 50.7147 127.649 48.9218 128.379 46.4644C129.221 43.6309 128.667 40.8822 126.604 39.7593C124.053 38.3709 121.334 39.7956 119.38 40.8591H119.38ZM69.3029 39.4801C66.6393 40.0345 64.8338 42.8385 64.1618 45.6906C63.3079 49.3145 63.8206 52.1723 64.7186 55.5664C68.0095 68.0004 76.787 74.8943 74.1837 79.6849C73.7999 80.3915 71.9786 81.9662 70.7093 79.897C68.6093 76.4741 70.0197 73.2802 70.0197 72.9154C70.0195 72.1005 69.0536 71.5938 68.4381 72.1196C66.283 73.9593 67.5116 83.5377 73.146 82.5829C76.6924 81.982 77.7454 78.6076 77.1297 75.4504C75.7258 68.247 73.0976 66.1524 69.6479 59.98C68.2398 57.4603 66.926 54.9955 66.5831 51.636C66.2501 48.3769 66.9853 44.4594 68.7482 42.5806C71.5578 39.5858 73.7477 42.3357 74.4695 45.6738C74.6583 46.5462 74.6567 47.3916 74.805 48.1876C75.0588 49.5486 78.0716 50.1364 76.1129 44.0336C75.2343 41.297 73.1075 38.688 69.3029 39.4802V39.4801ZM36.4256 63.7027L45.3091 73.994C46.2099 74.076 47.0044 73.5494 46.5444 72.6608C46.3631 72.3107 45.5483 71.4511 45.22 71.1079L42.5055 67.9297C41.5033 66.8624 40.7583 65.8852 39.8542 64.8457C39.3772 64.297 37.4461 62.2315 37.1836 61.6104L47.5432 49.7654C47.844 49.4017 47.9085 49.3051 48.2446 48.9494C49.2189 47.9184 48.3316 46.268 46.7227 48.0347C46.2814 48.5197 45.6841 49.2078 45.2616 49.7473L36.3965 59.7033L36.3621 41.2513C36.3671 39.5143 36.9894 36.3273 34.8195 36.4851C32.9844 36.6185 33.4794 38.7796 33.4896 41.4021L33.542 72.7704C33.557 74.5757 33.2831 84.3375 33.8024 85.0674C34.2777 85.7356 35.3501 85.8198 36.01 85.3043C36.7205 84.7494 36.5087 83.598 36.4995 82.573C36.4451 76.5443 36.3229 69.5719 36.4259 63.703L36.4256 63.7027ZM109.353 44.5017C111.021 43.8059 112.105 50.8712 112.271 52.4273C112.649 55.985 112.473 59.4662 112.211 63.0034C111.885 67.3921 111.615 79.7463 107.142 80.0596C102.654 80.374 104.055 65.0816 104.371 61.5816C104.7 57.9556 105.062 55.4738 105.95 52.1287C106.476 50.149 107.935 45.0931 109.353 44.5017ZM109.286 40.8939C107.678 41.2611 106.221 42.9304 105.517 44.1512C101.942 50.3528 100.08 67.1193 100.928 74.1269C101.431 78.2859 102.655 82.0931 105.989 83.1318C109.653 84.2731 111.499 79.0501 112.311 75.9625C113.359 71.9756 113.878 67.9954 114.064 63.7261C114.255 59.3514 114.65 39.6685 109.286 40.8939H109.286Z" fill="white"/>
<path fill-rule="evenodd" clip-rule="evenodd" d="M75.8405 119.6C77.1045 119.918 78.6369 121.018 80.2764 121.226C80.3644 120.529 80.4837 119.929 80.537 119.223C80.5989 118.399 80.5119 117.524 80.6421 116.731C80.2922 116.232 80.6915 114.284 78.9692 111.938C78.0996 110.754 76.7428 109.701 74.5169 109.71L74.7257 112.291C74.1964 112.119 72.2859 110.753 72.1905 111.252C72.1791 111.313 72.1237 111.324 72.1091 111.35C71.6719 112.146 71.4767 114.734 72.4122 116.356C72.6377 116.747 73.7345 118.001 73.932 118.169C74.2905 118.475 75.5974 119.293 75.8406 119.601L75.8405 119.6Z" fill="#FDD6E9"/>
<path fill-rule="evenodd" clip-rule="evenodd" d="M77.4207 125.586C77.8683 124.773 78.1635 124.766 78.6912 124.112C79.1204 123.581 79.4582 123.073 79.7954 122.537C79.0588 121.66 75.6893 120.639 73.9762 120.345C71.9976 120.045 70.9322 120.397 69.6631 121.28C68.6868 121.96 67.4539 123.05 67.2427 124.497L69.5927 125.055C69.4761 125.354 69.0045 125.671 68.7145 125.915C68.3679 126.206 68.0704 126.42 67.7738 126.759C69.8611 129.303 74.0625 128.535 76.4501 126.4C76.8664 126.028 76.9743 125.831 77.4203 125.586H77.4207Z" fill="#FDD6E9"/>
<path fill-rule="evenodd" clip-rule="evenodd" d="M78.0169 128.212C77.3754 130.629 77.4336 132.658 79.0993 134.728C79.6094 135.363 80.0516 135.47 80.6767 135.893C80.9706 135.443 81.4516 134.136 81.6478 133.553C82.1814 134.108 82.4276 135.022 83.0038 135.646C84.2558 135.204 84.8903 133.9 85.2481 132.472C85.7895 130.309 85.1152 129.398 84.7163 127.665C84.4221 127.442 83.371 125.389 81.9297 124.06C81.7647 123.908 81.0231 123.177 80.9194 123.048C79.2636 124.844 78.8956 126.457 78.0169 128.212Z" fill="#FDD6E9"/>
<path fill-rule="evenodd" clip-rule="evenodd" d="M82.4368 115.887C82.3063 117.522 82.0317 118.86 82.2355 120.556C83.2396 120.38 84.0456 120.224 84.9755 119.975C85.8852 119.731 86.8454 119.166 87.6308 119.158C88.1733 118.366 92.7151 116.767 91.1607 111.668L88.786 112.529C88.8725 112.076 88.9587 111.734 89.0649 111.237C89.1322 110.923 89.3893 110.27 89.1579 110.043C87.822 109.052 85.1105 110.936 84.4941 111.513C83.3235 112.608 82.8854 114.146 82.4369 115.887H82.4368Z" fill="#FDD6E9"/>
<path fill-rule="evenodd" clip-rule="evenodd" d="M86.2824 127.223C86.6882 127.349 91.2884 130.544 94.4174 127.145L92.5361 125.436L94.9348 124.981C94.9818 122.724 91.6648 120.491 88.0022 120.764C86.2799 121.282 83.5004 121.576 82.4385 122.71C84.058 125.104 84.0216 125.021 85.7982 126.687C85.892 126.775 86.0012 126.87 86.1002 126.979C86.2888 127.188 86.1642 126.997 86.2822 127.223L86.2824 127.223Z" fill="#FDD6E9"/>
<path fill-rule="evenodd" clip-rule="evenodd" d="M80.642 116.731C80.5119 117.524 80.5989 118.399 80.5369 119.222C80.4837 119.929 80.3644 120.529 80.2763 121.226C78.6368 121.018 77.1045 119.918 75.8404 119.6C75.2355 119.464 74.5064 119.637 73.8892 119.793L73.9763 120.345C75.6894 120.639 79.0591 121.66 79.7955 122.537C79.4581 123.073 79.1205 123.58 78.6913 124.112C78.1634 124.766 77.8684 124.773 77.4208 125.586L76.9009 128.812L77.7155 128.425C77.7457 128.405 77.7866 128.375 77.8139 128.356C77.8425 128.337 77.8917 128.301 77.915 128.285C77.9385 128.268 77.982 128.235 78.0168 128.212C78.8955 126.457 79.2635 124.844 80.9193 123.048C81.023 123.176 81.7648 123.908 81.9296 124.06C83.3711 125.389 84.4221 127.442 84.7162 127.665C85.2209 127.95 86.187 128.469 86.6094 128.552L86.4058 127.58C86.3944 127.541 86.3789 127.495 86.3676 127.46L86.282 127.223C86.164 126.996 86.2886 127.188 86.1 126.979C86.001 126.87 85.8918 126.774 85.798 126.686C84.0212 125.02 84.0578 125.104 82.4383 122.71C83.5002 121.576 86.2797 121.282 88.002 120.764C88.2395 120.437 88.3277 120.338 88.5674 120.093L89.1579 119.37L87.6303 119.157C86.8448 119.166 85.8846 119.731 84.9749 119.974C84.0451 120.223 83.2389 120.38 82.2349 120.556C82.0312 118.859 82.3057 117.522 82.4362 115.887C81.8522 115.328 81.9809 114.699 81.3417 114.152C80.2527 115.461 80.7337 116.1 80.642 116.731Z" fill="#FD45A6"/>
<path d="M42.3364 98.2576L42.299 96.8721L45.2616 92.2268H46.1123L43.8213 95.9067L43.4034 96.611L42.3363 98.2578L42.3364 98.2576ZM41.6797 100.177V92.2266H42.4259V100.177H41.6797ZM45.3809 100.177L43.2392 96.3835L43.7393 95.5432L46.2541 100.177H45.3809ZM49.2091 100.268C48.8161 100.268 48.4492 100.166 48.1084 99.9611C47.7676 99.7567 47.4729 99.4708 47.2241 99.1036C46.9755 98.7365 46.7826 98.3066 46.6459 97.8145C46.5091 97.3223 46.4381 96.7847 46.4331 96.2017C46.4381 95.6186 46.5091 95.0812 46.6459 94.5888C46.7826 94.0967 46.9768 93.667 47.2278 93.2997C47.4792 92.9325 47.7727 92.6468 48.1084 92.4422C48.4442 92.2377 48.8113 92.1354 49.2091 92.1354C49.6122 92.1354 49.9814 92.2377 50.3175 92.4422C50.6533 92.6468 50.9468 92.9306 51.198 93.2941C51.4494 93.6576 51.6434 94.0872 51.7801 94.5832C51.9168 95.0793 51.9854 95.6188 51.9854 96.2017C51.9854 96.7924 51.9168 97.3336 51.7801 97.8258C51.6434 98.3179 51.4492 98.7457 51.198 99.1092C50.9468 99.4727 50.6533 99.7567 50.3175 99.9611C49.9816 100.166 49.6122 100.268 49.2091 100.268ZM49.2091 99.2568C49.5028 99.2568 49.7726 99.1811 50.0188 99.0296C50.2652 98.8784 50.4791 98.6644 50.6608 98.388C50.8424 98.1115 50.9842 97.7879 51.0861 97.4168C51.1881 97.0458 51.239 96.6407 51.239 96.2017C51.239 95.7626 51.1895 95.3574 51.0898 94.9865C50.9901 94.6154 50.8485 94.2918 50.6644 94.0153C50.4804 93.7389 50.2652 93.5251 50.0188 93.3737C49.7726 93.2222 49.5028 93.1465 49.2091 93.1465C48.9207 93.1465 48.6519 93.2222 48.4033 93.3737C48.1545 93.5251 47.9393 93.7389 47.7577 94.0153C47.5761 94.2918 47.4343 94.6136 47.3324 94.9808C47.2304 95.348 47.1794 95.7549 47.1794 96.2017C47.1794 96.6407 47.2304 97.0459 47.3324 97.4168C47.4343 97.7879 47.5773 98.1115 47.7614 98.388C47.9454 98.6644 48.1606 98.8784 48.407 99.0296C48.6531 99.1811 48.9205 99.2568 49.209 99.2568H49.2091ZM53.1271 100.177V92.2264H55.1645C55.6222 92.2264 56.0128 92.3362 56.3362 92.5559C56.6595 92.7755 56.9082 93.0935 57.0824 93.5098C57.2565 93.9263 57.3435 94.4222 57.3435 94.9978C57.3435 95.5732 57.2565 96.0672 57.0824 96.4799C56.9082 96.8926 56.6595 97.2087 56.3362 97.4282C56.0128 97.648 55.6222 97.7577 55.1645 97.7577H53.5375L53.8733 97.2353V100.177H53.1271ZM56.6196 100.177L55.2913 97.2921H56.0899L57.4331 100.177H56.6196ZM53.8733 97.3489L53.5375 96.7924H55.1421C55.6196 96.7924 55.9817 96.6352 56.2278 96.3211C56.4742 96.0068 56.5973 95.5658 56.5973 94.998C56.5973 94.43 56.4742 93.9909 56.2278 93.6806C55.9817 93.37 55.6196 93.2147 55.1421 93.2147H53.5375L53.8733 92.6469V97.349V97.3489ZM59.2314 95.6679L61.9181 95.6566L61.9106 96.6107L59.2314 96.6218V95.6679ZM59.2913 99.2002L62.3436 99.1889V100.177H58.5524L58.5599 92.2266H62.239V93.2033L59.2988 93.2146L59.2913 99.2002ZM62.7613 100.177L65.1268 92.2264H65.8656L68.2386 100.177H67.455L65.3432 92.8627H65.6417L63.5299 100.177H62.7613ZM63.7688 98.1893L63.9701 97.2806H66.9105L67.1269 98.1893H63.7688ZM69.0149 100.177V92.2264H69.6269L73.082 98.757H72.7612V92.2264H73.5075V100.177H72.8955L69.4404 93.6463H69.7612V100.177H69.0149ZM79.4176 100.268C79.0198 100.268 78.6529 100.167 78.3169 99.9667C77.9812 99.7661 77.6901 99.4821 77.4438 99.1148C77.1976 98.7476 77.0048 98.3177 76.8655 97.8256C76.7261 97.3334 76.6565 96.7922 76.6565 96.2015C76.6565 95.6108 76.7263 95.0695 76.8655 94.5773C77.0048 94.0853 77.1986 93.6555 77.4474 93.2882C77.6962 92.921 77.9885 92.637 78.3244 92.4363C78.6602 92.2356 79.0272 92.1353 79.4251 92.1353C79.8282 92.1353 80.2002 92.2395 80.541 92.4475C80.8816 92.6558 81.1714 92.9643 81.4105 93.3733L80.9253 94.0887C80.7264 93.7707 80.5025 93.5341 80.2536 93.3789C80.005 93.2236 79.7386 93.1461 79.455 93.1461C79.1615 93.1461 78.8893 93.2219 78.6379 93.3733C78.3865 93.5248 78.169 93.7367 77.985 94.0092C77.8009 94.2817 77.6579 94.6055 77.556 94.9804C77.4539 95.3551 77.4031 95.7622 77.4031 96.2013C77.4031 96.6404 77.4539 97.0475 77.556 97.4222C77.6579 97.797 77.8009 98.1207 77.985 98.3934C78.169 98.6659 78.3867 98.878 78.6379 99.0293C78.8893 99.1808 79.1615 99.2565 79.455 99.2565C79.7386 99.2565 80.0048 99.1788 80.2536 99.0237C80.5023 98.8685 80.7264 98.6283 80.9253 98.3026L81.4105 99.018C81.1716 99.427 80.8816 99.7374 80.541 99.9495C80.2002 100.162 79.8258 100.268 79.4176 100.268V100.268ZM84.7163 100.268C84.3231 100.268 83.9562 100.165 83.6154 99.961C83.2747 99.7565 82.9799 99.4706 82.7311 99.1035C82.4825 98.7363 82.2896 98.3064 82.1528 97.8144C82.0161 97.3221 81.9453 96.7846 81.94 96.2015C81.9453 95.6184 82.0161 95.081 82.1528 94.5886C82.2896 94.0965 82.4837 93.6668 82.7347 93.2995C82.9861 92.9323 83.2796 92.6466 83.6154 92.442C83.9511 92.2376 84.3182 92.1353 84.7163 92.1353C85.1192 92.1353 85.4885 92.2376 85.8245 92.442C86.1602 92.6466 86.4537 92.9304 86.7049 93.2939C86.9563 93.6575 87.1503 94.087 87.287 94.583C87.424 95.0791 87.4923 95.6186 87.4923 96.2015C87.4923 96.7922 87.424 97.3334 87.287 97.8256C87.1503 98.3177 86.9562 98.7455 86.7049 99.109C86.4537 99.4726 86.1602 99.7565 85.8245 99.961C85.4887 100.165 85.1192 100.268 84.7163 100.268ZM84.7163 99.2567C85.0098 99.2567 85.2796 99.1809 85.5259 99.0295C85.7721 98.8782 85.9861 98.6642 86.1677 98.3879C86.3493 98.1114 86.4911 97.7878 86.5931 97.4166C86.6952 97.0456 86.746 96.6406 86.746 96.2015C86.746 95.7624 86.6964 95.3572 86.5967 94.9863C86.4972 94.6152 86.3556 94.2916 86.1714 94.0151C85.9873 93.7387 85.7721 93.5249 85.5259 93.3735C85.2796 93.222 85.0098 93.1463 84.7163 93.1463C84.4277 93.1463 84.159 93.222 83.9103 93.3735C83.6615 93.5249 83.4465 93.7387 83.2647 94.0151C83.0832 94.2916 82.9412 94.6134 82.8393 94.9806C82.7374 95.3478 82.6864 95.7548 82.6864 96.2015C82.6864 96.6406 82.7374 97.0458 82.8393 97.4166C82.9412 97.7878 83.0844 98.1114 83.2683 98.3879C83.4524 98.6642 83.6676 98.8782 83.9139 99.0295C84.1601 99.1809 84.4275 99.2567 84.7161 99.2567H84.7163ZM90.1565 100.268C89.7586 100.268 89.378 100.175 89.0147 99.9895C88.6515 99.804 88.3655 99.5634 88.1565 99.2681L88.4328 98.3823C88.6317 98.6472 88.8855 98.8669 89.1939 99.0409C89.5024 99.2151 89.8232 99.3022 90.1565 99.3022C90.4599 99.3022 90.7061 99.2492 90.8952 99.1432C91.0845 99.0373 91.2236 98.8914 91.3132 98.7061C91.4028 98.5206 91.4476 98.3104 91.4476 98.0756C91.4476 97.8031 91.3891 97.5833 91.2722 97.4168C91.1553 97.2502 91.0036 97.1159 90.8171 97.0136C90.6304 96.9113 90.4253 96.8224 90.2012 96.7467C89.9775 96.671 89.7522 96.582 89.526 96.4797C89.2995 96.3774 89.093 96.247 88.9067 96.0879C88.72 95.929 88.5694 95.7151 88.4553 95.4463C88.3408 95.1774 88.2835 94.8311 88.2835 94.4071C88.2835 93.9981 88.3544 93.6215 88.4961 93.2769C88.6379 92.9325 88.8568 92.6561 89.1529 92.4477C89.4488 92.2396 89.8258 92.1354 90.2833 92.1354C90.5867 92.1354 90.8877 92.1962 91.1864 92.3173C91.485 92.4383 91.7435 92.6126 91.9625 92.8397L91.7163 93.7483C91.4924 93.5211 91.2562 93.3566 91.0074 93.2543C90.7586 93.1522 90.5173 93.1011 90.2835 93.1011C89.99 93.1011 89.7487 93.1579 89.5596 93.2714C89.3707 93.3849 89.2327 93.5362 89.1456 93.7255C89.0584 93.9149 89.0151 94.1269 89.0151 94.3616C89.0151 94.6418 89.0734 94.8651 89.1905 95.0317C89.3074 95.1984 89.4591 95.3309 89.6456 95.4293C89.8322 95.5276 90.0372 95.6167 90.2612 95.6962C90.4851 95.7758 90.7103 95.8647 90.9366 95.9632C91.1631 96.0615 91.3696 96.1904 91.5561 96.3493C91.7428 96.5084 91.8929 96.7205 92.0076 96.9853C92.1219 97.2502 92.1793 97.591 92.1793 98.0075C92.1793 98.4089 92.1071 98.7818 91.9629 99.1262C91.8186 99.4706 91.596 99.747 91.295 99.9554C90.994 100.163 90.6146 100.268 90.157 100.268H90.1565ZM93.2683 100.177V92.2264H93.8802L96.2234 98.2345H95.8951L98.2086 92.2264H98.8204L98.8279 100.177H98.1117L98.1042 93.9416H98.2759L96.2161 99.2115H95.8729L93.7984 93.9416H93.9847V100.177H93.2685H93.2683ZM101.074 95.6679L103.761 95.6566L103.753 96.6107L101.074 96.6218V95.6679ZM101.134 99.2002L104.186 99.1889V100.177H100.395L100.403 92.2266H104.082V93.2033L101.141 93.2146L101.134 99.2002ZM106.433 100.177V93.2146L104.641 93.2033V92.2266H108.955L108.962 93.2147L107.171 93.2034V100.177H106.433V100.177ZM109.776 100.177V92.2264H110.522V100.177H109.776ZM114.425 100.268C114.027 100.268 113.66 100.167 113.324 99.9667C112.988 99.7661 112.697 99.4821 112.451 99.1148C112.205 98.7476 112.012 98.3177 111.873 97.8256C111.733 97.3334 111.664 96.7922 111.664 96.2015C111.664 95.6108 111.733 95.0695 111.873 94.5773C112.012 94.0853 112.206 93.6555 112.455 93.2882C112.703 92.921 112.996 92.637 113.332 92.4363C113.667 92.2356 114.034 92.1353 114.432 92.1353C114.835 92.1353 115.207 92.2395 115.548 92.4475C115.889 92.6558 116.179 92.9643 116.418 93.3733L115.932 94.0887C115.734 93.7707 115.51 93.5341 115.261 93.3789C115.012 93.2236 114.746 93.1461 114.462 93.1461C114.169 93.1461 113.896 93.2219 113.645 93.3733C113.394 93.5248 113.176 93.7367 112.992 94.0092C112.808 94.2817 112.665 94.6055 112.563 94.9804C112.461 95.3551 112.41 95.7622 112.41 96.2013C112.41 96.6404 112.461 97.0475 112.563 97.4222C112.665 97.797 112.808 98.1207 112.992 98.3934C113.176 98.6659 113.394 98.878 113.645 99.0293C113.896 99.1808 114.169 99.2565 114.462 99.2565C114.746 99.2565 115.012 99.1788 115.261 99.0237C115.509 98.8685 115.734 98.6283 115.932 98.3026L116.418 99.018C116.179 99.427 115.889 99.7374 115.548 99.9495C115.207 100.162 114.833 100.268 114.425 100.268V100.268ZM118.999 100.268C118.601 100.268 118.221 100.175 117.858 99.9895C117.494 99.804 117.208 99.5634 116.999 99.2681L117.276 98.3823C117.474 98.6472 117.728 98.8669 118.037 99.0409C118.345 99.2151 118.666 99.3022 118.999 99.3022C119.303 99.3022 119.549 99.2492 119.738 99.1432C119.927 99.0373 120.066 98.8914 120.156 98.7061C120.246 98.5206 120.29 98.3104 120.29 98.0756C120.29 97.8031 120.232 97.5833 120.115 97.4168C119.998 97.2502 119.846 97.1159 119.66 97.0136C119.473 96.9113 119.268 96.8224 119.044 96.7467C118.82 96.671 118.595 96.582 118.369 96.4797C118.142 96.3774 117.936 96.247 117.75 96.0879C117.563 95.929 117.413 95.7151 117.298 95.4463C117.184 95.1774 117.126 94.8311 117.126 94.4071C117.126 93.9981 117.197 93.6215 117.339 93.2769C117.481 92.9325 117.7 92.6561 117.996 92.4477C118.292 92.2396 118.669 92.1354 119.126 92.1354C119.43 92.1354 119.731 92.1962 120.029 92.3173C120.328 92.4383 120.586 92.6126 120.805 92.8397L120.559 93.7483C120.335 93.5211 120.099 93.3566 119.85 93.2543C119.602 93.1522 119.36 93.1011 119.126 93.1011C118.833 93.1011 118.592 93.1579 118.403 93.2714C118.214 93.3849 118.076 93.5362 117.989 93.7255C117.901 93.9149 117.858 94.1269 117.858 94.3616C117.858 94.6418 117.916 94.8651 118.033 95.0317C118.15 95.1984 118.302 95.3309 118.488 95.4293C118.675 95.5276 118.88 95.6167 119.104 95.6962C119.328 95.7758 119.553 95.8647 119.779 95.9632C120.006 96.0615 120.212 96.1904 120.399 96.3493C120.586 96.5084 120.736 96.7205 120.85 96.9853C120.965 97.2502 121.022 97.591 121.022 98.0075C121.022 98.4089 120.95 98.7818 120.806 99.1262C120.661 99.4706 120.439 99.747 120.138 99.9554C119.837 100.163 119.457 100.268 119 100.268H118.999Z" fill="white"/>
</g>
<defs>
<clipPath id="clip0_84_838">
<rect width="164" height="164" fill="white"/>
</clipPath>
</defs>
</svg>
