<svg width="124" height="124" viewBox="0 0 124 124" fill="none" xmlns="http://www.w3.org/2000/svg">
<path d="M33.7344 100.295H34.1648M59.5627 100.295H59.9932" stroke="#9F8189" stroke-width="10" stroke-linecap="round" stroke-linejoin="round"/>
<path d="M3.09961 31.0003H11.9449C12.9418 30.9864 13.9091 31.4192 14.6686 32.2192C15.4282 33.0192 15.9288 34.1323 16.0783 35.3535L18.0623 51.4858M18.0623 51.4858L23.7663 87.8941H69.2329L77.4996 51.4858H18.0623Z" stroke="#9F8189" stroke-width="6" stroke-linecap="round" stroke-linejoin="round"/>
<rect x="49.5996" width="74.4" height="74.4" rx="37.2" fill="#E6E2E4"/>
<path d="M86.7862 48.5192C85.0155 48.5192 83.4155 48.0712 81.9862 47.1752C80.5782 46.2792 79.4688 44.9779 78.6582 43.2712C77.8475 41.5432 77.4422 39.4526 77.4422 36.9992C77.4422 34.5459 77.8475 32.4659 78.6582 30.7592C79.4688 29.0312 80.5782 27.7192 81.9862 26.8232C83.4155 25.9272 85.0155 25.4792 86.7862 25.4792C88.5782 25.4792 90.1782 25.9272 91.5862 26.8232C92.9942 27.7192 94.1035 29.0312 94.9142 30.7592C95.7462 32.4659 96.1622 34.5459 96.1622 36.9992C96.1622 39.4526 95.7462 41.5432 94.9142 43.2712C94.1035 44.9779 92.9942 46.2792 91.5862 47.1752C90.1782 48.0712 88.5782 48.5192 86.7862 48.5192ZM86.7862 44.9032C87.8315 44.9032 88.7382 44.6259 89.5062 44.0712C90.2742 43.4952 90.8715 42.6206 91.2982 41.4472C91.7462 40.2739 91.9702 38.7912 91.9702 36.9992C91.9702 35.1859 91.7462 33.7032 91.2982 32.5512C90.8715 31.3779 90.2742 30.5139 89.5062 29.9592C88.7382 29.3832 87.8315 29.0952 86.7862 29.0952C85.7835 29.0952 84.8875 29.3832 84.0982 29.9592C83.3302 30.5139 82.7222 31.3779 82.2742 32.5512C81.8475 33.7032 81.6342 35.1859 81.6342 36.9992C81.6342 38.7912 81.8475 40.2739 82.2742 41.4472C82.7222 42.6206 83.3302 43.4952 84.0982 44.0712C84.8875 44.6259 85.7835 44.9032 86.7862 44.9032Z" fill="white"/>
</svg>
