<svg width="34" height="34" viewBox="0 0 34 34" fill="none" xmlns="http://www.w3.org/2000/svg">
<g clip-path="url(#clip0_237_1684)">
<path d="M32.5 11.1345C32.5 13.2049 31.7508 15.2932 30.2354 16.8817L27.7154 19.5233L16.8692 30.8929C16.8181 30.9464 16.8011 30.9643 16.75 31C16.6989 30.9643 16.6819 30.9464 16.6308 30.8929L3.2646 16.8817C1.74919 15.2932 1 13.2228 1 11.1345C1 9.04621 1.74919 6.95793 3.2646 5.3694C6.29541 2.2102 11.1992 2.2102 14.23 5.3694L16.733 8.01099L19.253 5.3694C22.2838 2.2102 27.1705 2.2102 30.2014 5.3694C31.7508 6.95793 32.5 9.02836 32.5 11.1345Z" fill="white" stroke="white" stroke-width="2" stroke-linecap="round" stroke-linejoin="round"/>
</g>
<defs>
<clipPath id="clip0_237_1684">
<rect width="33.5" height="33.5" fill="white"/>
</clipPath>
</defs>
</svg>
