<svg width="32" height="32" viewBox="0 0 32 32" fill="none" xmlns="http://www.w3.org/2000/svg">
<path d="M27.6602 4.33008H31.0007" stroke="#483A45" stroke-width="2" stroke-linecap="round" stroke-linejoin="round"/>
<path d="M1 4.33008H20.9946" stroke="#483A45" stroke-width="2" stroke-linecap="round" stroke-linejoin="round"/>
<path d="M24.3347 7.65935C26.1797 7.65935 27.6753 6.16861 27.6753 4.32968C27.6753 2.49075 26.1797 1 24.3347 1C22.4898 1 20.9941 2.49075 20.9941 4.32968C20.9941 6.16861 22.4898 7.65935 24.3347 7.65935Z" stroke="#483A45" stroke-width="2" stroke-linecap="round" stroke-linejoin="round"/>
<path d="M27.6602 27.6699H31.0007" stroke="#483A45" stroke-width="2" stroke-linecap="round" stroke-linejoin="round"/>
<path d="M1 27.6699H20.9946" stroke="#483A45" stroke-width="2" stroke-linecap="round" stroke-linejoin="round"/>
<path d="M24.3347 31.0002C26.1797 31.0002 27.6753 29.5094 27.6753 27.6705C27.6753 25.8316 26.1797 24.3408 24.3347 24.3408C22.4898 24.3408 20.9941 25.8316 20.9941 27.6705C20.9941 29.5094 22.4898 31.0002 24.3347 31.0002Z" stroke="#483A45" stroke-width="2" stroke-linecap="round" stroke-linejoin="round"/>
<path d="M11.0059 16H31.0004" stroke="#483A45" stroke-width="2" stroke-linecap="round" stroke-linejoin="round"/>
<path d="M1 16H4.34054" stroke="#483A45" stroke-width="2" stroke-linecap="round" stroke-linejoin="round"/>
<path d="M7.66476 19.3293C9.50969 19.3293 11.0053 17.8385 11.0053 15.9996C11.0053 14.1607 9.50969 12.6699 7.66476 12.6699C5.81983 12.6699 4.32422 14.1607 4.32422 15.9996C4.32422 17.8385 5.81983 19.3293 7.66476 19.3293Z" stroke="#483A45" stroke-width="2" stroke-linecap="round" stroke-linejoin="round"/>
</svg>
