<svg width="32" height="32" viewBox="0 0 32 32" fill="none" xmlns="http://www.w3.org/2000/svg">
<path d="M15.5277 2.88155C15.6834 2.43377 16.3166 2.43377 16.4723 2.88155L19.0611 10.3292C19.2671 10.9218 19.8201 11.3236 20.4474 11.3364L28.3304 11.497C28.8044 11.5067 29.0001 12.1089 28.6223 12.3953L22.3392 17.1589C21.8393 17.5379 21.628 18.188 21.8097 18.7885L24.0929 26.3354C24.2302 26.7892 23.7179 27.1614 23.3287 26.8906L16.8568 22.3871C16.3418 22.0287 15.6582 22.0287 15.1432 22.3871L8.67125 26.8906C8.28213 27.1614 7.76981 26.7892 7.90709 26.3354L10.1903 18.7885C10.372 18.188 10.1607 17.5379 9.6608 17.1589L3.37767 12.3953C2.99991 12.1089 3.1956 11.5067 3.66956 11.497L11.5526 11.3364C12.1799 11.3236 12.7329 10.9218 12.9389 10.3292L15.5277 2.88155Z" fill="white" stroke="#9F8189"/>
</svg>
