<svg width="16" height="16" viewBox="0 0 16 16" fill="none" xmlns="http://www.w3.org/2000/svg">
<path fill-rule="evenodd" clip-rule="evenodd" d="M4.03041 13.9293C3.7953 14.1002 3.47895 13.8703 3.56876 13.5939L5.0122 9.15147C5.05236 9.02786 5.00836 8.89245 4.90322 8.81606L1.12424 6.07047C0.889125 5.89965 1.00996 5.52777 1.30058 5.52777H5.97165C6.10162 5.52777 6.2168 5.44408 6.25697 5.32047L7.40041 1.80132C7.50598 1.47641 7.98572 1.55239 7.98572 1.89403V10.9028C7.98572 10.9988 7.93975 11.089 7.86206 11.1455L4.03041 13.9293Z" fill="#483A45"/>
<path d="M6.74677 5.47508L8 1.61803L9.25323 5.47508C9.36033 5.8047 9.66749 6.02786 10.0141 6.02786H14.0696L10.7886 8.41165L11.0825 8.81616L10.7886 8.41165C10.5082 8.61537 10.3909 8.97646 10.498 9.30607L11.7512 13.1631L8.47023 10.7793C8.18983 10.5756 7.81016 10.5756 7.52977 10.7793L4.24877 13.1631L5.502 9.30608C5.6091 8.97646 5.49178 8.61536 5.21139 8.41165L1.93039 6.02786H5.98593C6.33251 6.02786 6.63967 5.8047 6.74677 5.47508Z" stroke="#483A45"/>
</svg>
