<svg width="32" height="32" viewBox="0 0 32 32" fill="none" xmlns="http://www.w3.org/2000/svg">
<path d="M15.0554 2.71739C15.3667 1.82183 16.6333 1.82183 16.9446 2.71739L19.5334 10.165C19.6707 10.5601 20.0394 10.8279 20.4575 10.8365L28.3406 10.9971C29.2886 11.0164 29.6799 12.221 28.9244 12.7938L22.6413 17.5573C22.308 17.81 22.1671 18.2434 22.2883 18.6438L24.5715 26.1907C24.846 27.0982 23.8214 27.8426 23.0432 27.3011L16.5712 22.7975C16.2279 22.5586 15.7721 22.5586 15.4288 22.7975L8.95684 27.3011C8.1786 27.8426 7.15396 27.0982 7.42851 26.1907L9.71173 18.6438C9.83285 18.2434 9.69202 17.81 9.35873 17.5573L3.0756 12.7938C2.32007 12.221 2.71145 11.0164 3.65937 10.9971L11.5425 10.8365C11.9606 10.8279 12.3293 10.5601 12.4666 10.165L15.0554 2.71739Z" fill="#9F8189"/>
</svg>
