<svg width="24" height="24" viewBox="0 0 24 24" fill="none" xmlns="http://www.w3.org/2000/svg">
<path d="M23 7.68123C23 9.12725 22.4768 10.5857 21.4184 11.6952L19.6584 13.5401L12.0832 21.4807C12.0476 21.5181 12.0357 21.5306 12 21.5556C11.9643 21.5306 11.9524 21.5181 11.9168 21.4807L2.58162 11.6952C1.52325 10.5857 1 9.13972 1 7.68123C1 6.22275 1.52325 4.76427 2.58162 3.65482C4.69838 1.44839 8.12324 1.44839 10.24 3.65482L11.9881 5.49974L13.7481 3.65482C15.8649 1.44839 19.2778 1.44839 21.3946 3.65482C22.4768 4.76427 23 6.21028 23 7.68123Z" stroke="#FF63B0" stroke-linecap="round" stroke-linejoin="round"/>
</svg>
