<svg width="24" height="24" viewBox="0 0 24 24" fill="none" xmlns="http://www.w3.org/2000/svg">
<path d="M22 11.3434V18.5955C22 20.4761 20.5514 22 18.7568 22H5.24324C3.44865 22 2 20.4761 2 18.5955V11.3434C2 10.3275 2.42162 9.37639 3.16757 8.72791L9.92432 2.79438C11.1243 1.73521 12.8757 1.73521 14.0757 2.79438L20.8324 8.72791C21.5784 9.37639 22 10.3275 22 11.3434Z" fill="#FFB7DA" stroke="#FF63B0" stroke-width="2" stroke-linecap="round" stroke-linejoin="round"/>
<path d="M15.0059 21.9998H8.99512V15.5691C8.99512 14.9746 9.4816 14.4883 10.0762 14.4883H13.9248C14.5194 14.4883 15.0059 14.9746 15.0059 15.5691V21.9998V21.9998Z" fill="white" stroke="#FF63B0" stroke-width="2" stroke-linecap="round" stroke-linejoin="round"/>
</svg>
